# Blender 3.3.1
# www.blender.org
mtllib chute.mtl
o Cube
v -0.350325 -0.500000 0.350325
v -0.480520 0.275638 0.480520
v -0.350325 -0.500000 -0.350325
v -0.480520 0.275638 -0.480520
v 0.350325 -0.500000 0.350325
v 0.480520 0.275638 0.480520
v 0.350325 -0.500000 -0.350325
v 0.480520 0.275638 -0.480520
v -0.451320 0.275638 0.451320
v -0.451320 0.275638 -0.451320
v 0.451320 0.275638 0.451320
v 0.451320 0.275638 -0.451320
v -0.331433 -0.472253 0.331433
v -0.331433 -0.472253 -0.331433
v 0.331433 -0.472253 0.331433
v 0.331433 -0.472253 -0.331433
vn -0.9862 -0.1655 -0.0000
vn -0.0000 -0.1655 -0.9862
vn 0.9862 -0.1655 -0.0000
vn -0.0000 -0.1655 0.9862
vn -0.0000 -1.0000 -0.0000
vn -0.0000 1.0000 -0.0000
vn -0.0000 0.1583 -0.9874
vn -0.0000 0.1583 0.9874
vn -0.9874 0.1583 -0.0000
vn 0.9874 0.1583 -0.0000
vt 0.507092 0.015616
vt 0.095861 0.014199
vt 0.640953 0.673164
vt 0.583506 0.477228
vt 0.019446 0.475811
vt 0.960075 0.526117
vt 0.928712 0.039392
vt 0.095861 0.015616
vt 0.504362 0.014186
vt 0.945645 0.673164
vt 0.019446 0.477228
vt 0.580777 0.475798
vt 0.960075 0.039392
vt 0.975756 0.526117
vt 0.098590 0.015629
vt 0.507092 0.014199
vt 0.640952 0.977857
vt 0.022176 0.477241
vt 0.583507 0.475811
vt 0.944393 0.039392
vt 0.928712 0.526117
vt 0.093131 0.014186
vt 0.509822 0.015629
vt 0.945645 0.977857
vt 0.016716 0.475798
vt 0.586236 0.477241
vt 0.944393 0.526117
vt 0.975756 0.039392
vt 0.602945 0.992273
vt 0.945287 0.511329
vt 0.913924 0.054180
vt 0.040563 0.989513
vt 0.945287 0.054180
vt 0.960968 0.511329
vt 0.042173 0.989375
vt 0.602918 0.989513
vt 0.929605 0.054180
vt 0.040591 0.992273
vt 0.913924 0.511329
vt 0.602931 0.989375
vt 0.929605 0.511329
vt 0.960968 0.054180
vt 0.604528 0.989375
vt 0.040577 0.989375
vt 0.528254 0.520381
vt 0.881368 0.324564
vt 0.115254 0.517621
vt 0.881368 0.027171
vt 0.116865 0.517483
vt 0.528226 0.517621
vt 0.115282 0.520381
vt 0.583974 0.324564
vt 0.528240 0.517483
vt 0.583974 0.027171
vt 0.529836 0.517483
vt 0.115268 0.517483
s 0
usemtl Material.002
f 1/1/1 2/4/1 4/11/1 3/8/1
f 3/9/2 4/12/2 8/25/2 7/22/2
f 7/23/3 8/26/3 6/18/3 5/15/3
f 5/16/4 6/19/4 2/5/4 1/2/4
f 3/10/5 7/24/5 5/17/5 1/3/5
f 6/20/6 8/27/6 12/41/6 11/37/6
f 9/29/7 11/38/7 15/51/7 13/45/7
f 4/13/6 2/6/6 9/30/6 10/33/6
f 2/7/6 6/21/6 11/39/6 9/31/6
f 8/28/6 4/14/6 10/34/6 12/42/6
f 16/54/6 14/48/6 13/46/6 15/52/6
f 12/43/8 10/35/8 14/49/8 16/55/8
f 11/40/9 12/44/9 16/56/9 15/53/9
f 10/36/10 9/32/10 13/47/10 14/50/10
