# Blender 3.3.1
# www.blender.org
mtllib conveyor.mtl
o Cylinder
v -0.495618 0.498582 0.411447
v -0.395605 0.498582 0.411447
v -0.395605 0.413961 -0.496069
v -0.495618 0.413961 -0.496069
v -0.395605 0.371650 -0.484732
v -0.495618 0.371650 -0.484732
v -0.395605 0.340676 -0.453758
v -0.495618 0.340676 -0.453758
v -0.395605 0.329339 -0.411447
v -0.495618 0.329339 -0.411447
v -0.395605 0.498582 -0.411447
v -0.495618 0.498582 -0.411447
v -0.495618 0.329339 0.411447
v -0.395605 0.329339 0.411447
v -0.495618 0.340676 0.453758
v -0.395605 0.340676 0.453758
v -0.495618 0.371650 0.484732
v -0.395605 0.371650 0.484732
v -0.495618 0.413961 0.496069
v -0.395605 0.413961 0.496069
v -0.495618 0.456271 0.484732
v -0.395605 0.456271 0.484732
v -0.495618 0.487245 0.453758
v -0.395605 0.487245 0.453758
v -0.495618 0.456271 -0.484732
v -0.395605 0.456271 -0.484732
v -0.495618 0.487245 -0.453758
v -0.395605 0.487245 -0.453758
v 0.495618 0.498582 0.411447
v 0.395605 0.498582 0.411447
v 0.395605 0.413961 -0.496069
v 0.495618 0.413961 -0.496069
v 0.395605 0.371650 -0.484732
v 0.495618 0.371650 -0.484732
v 0.395605 0.340676 -0.453758
v 0.495618 0.340676 -0.453758
v 0.395605 0.329339 -0.411447
v 0.495618 0.329339 -0.411447
v 0.395605 0.498582 -0.411447
v 0.495618 0.498582 -0.411447
v 0.495618 0.329339 0.411447
v 0.395605 0.329339 0.411447
v 0.495618 0.340676 0.453758
v 0.395605 0.340676 0.453758
v 0.495618 0.371650 0.484732
v 0.395605 0.371650 0.484732
v 0.495618 0.413961 0.496069
v 0.395605 0.413961 0.496069
v 0.495618 0.456271 0.484732
v 0.395605 0.456271 0.484732
v 0.495618 0.487245 0.453758
v 0.395605 0.487245 0.453758
v 0.495618 0.456271 -0.484732
v 0.395605 0.456271 -0.484732
v 0.495618 0.487245 -0.453758
v 0.395605 0.487245 -0.453758
vn -0.0000 -1.0000 -0.0000
vn -0.0000 0.9659 -0.2588
vn -0.0000 0.2588 -0.9659
vn -0.0000 -0.2588 -0.9659
vn -0.0000 -0.7071 -0.7071
vn -0.0000 -0.9659 -0.2588
vn -0.0000 -0.9659 0.2588
vn -0.0000 -0.7071 0.7071
vn -0.0000 -0.2588 0.9659
vn -0.0000 0.2588 0.9659
vn -0.0000 0.7071 -0.7071
vn -0.0000 0.7071 0.7071
vn -0.0000 0.9659 0.2588
vn -0.0000 1.0000 -0.0000
vn -1.0000 -0.0000 -0.0000
vn 1.0000 -0.0000 -0.0000
vt 0.000000 0.500000
vt 0.000000 1.000000
vt 0.250000 1.000000
vt 0.250000 0.500000
vt 0.333333 1.000000
vt 0.333333 0.500000
vt 0.416667 1.000000
vt 0.416667 0.500000
vt 0.500000 1.000000
vt 0.500000 0.500000
vt 0.000000 1.000000
vt 0.000000 0.500000
vt 0.500000 0.500000
vt 0.500000 1.000000
vt 0.416667 0.500000
vt 0.416667 1.000000
vt 0.333333 0.500000
vt 0.333333 1.000000
vt 0.250000 0.500000
vt 0.250000 1.000000
vt 0.166667 0.500000
vt 0.166667 1.000000
vt 0.083333 0.500000
vt 0.083333 1.000000
vt 0.166667 0.500000
vt 0.166667 1.000000
vt 0.083333 0.500000
vt 0.083333 1.000000
vt 0.000000 0.500000
vt 0.000000 1.000000
vt 0.250000 1.000000
vt 0.250000 0.500000
vt 0.333333 1.000000
vt 0.333333 0.500000
vt 0.416667 1.000000
vt 0.416667 0.500000
vt 0.500000 1.000000
vt 0.500000 0.500000
vt 0.000000 1.000000
vt 0.000000 0.500000
vt 0.500000 0.500000
vt 0.500000 1.000000
vt 0.416667 0.500000
vt 0.416667 1.000000
vt 0.333333 0.500000
vt 0.333333 1.000000
vt 0.250000 0.500000
vt 0.250000 1.000000
vt 0.166667 0.500000
vt 0.166667 1.000000
vt 0.083333 0.500000
vt 0.083333 1.000000
vt 0.166667 0.500000
vt 0.166667 1.000000
vt 0.083333 0.500000
vt 0.083333 1.000000
s 0
f 10/10/1 9/9/1 14/14/1 13/13/1
f 27/27/2 12/12/2 11/11/2 28/28/2
f 4/4/3 25/25/3 26/26/3 3/3/3
f 6/6/4 4/4/4 3/3/4 5/5/4
f 8/8/5 6/6/5 5/5/5 7/7/5
f 10/10/6 8/8/6 7/7/6 9/9/6
f 13/13/7 14/14/7 16/16/7 15/15/7
f 15/15/8 16/16/8 18/18/8 17/17/8
f 17/17/9 18/18/9 20/20/9 19/19/9
f 19/19/10 20/20/10 22/22/10 21/21/10
f 25/25/11 27/27/11 28/28/11 26/26/11
f 21/21/12 22/22/12 24/24/12 23/23/12
f 23/23/13 24/24/13 2/2/13 1/1/13
f 2/2/14 11/11/14 12/12/14 1/1/14
f 27/27/15 25/25/15 4/4/15 6/6/15 8/8/15 10/10/15 13/13/15 15/15/15 17/17/15 19/19/15 21/21/15 23/23/15 1/1/15 12/12/15
f 26/26/16 28/28/16 11/11/16 2/2/16 24/24/16 22/22/16 20/20/16 18/18/16 16/16/16 14/14/16 9/9/16 7/7/16 5/5/16 3/3/16
f 38/38/1 41/41/1 42/42/1 37/37/1
f 55/55/2 56/56/2 39/39/2 40/40/2
f 32/32/3 31/31/3 54/54/3 53/53/3
f 34/34/4 33/33/4 31/31/4 32/32/4
f 36/36/5 35/35/5 33/33/5 34/34/5
f 38/38/6 37/37/6 35/35/6 36/36/6
f 41/41/7 43/43/7 44/44/7 42/42/7
f 43/43/8 45/45/8 46/46/8 44/44/8
f 45/45/9 47/47/9 48/48/9 46/46/9
f 47/47/10 49/49/10 50/50/10 48/48/10
f 53/53/11 54/54/11 56/56/11 55/55/11
f 49/49/12 51/51/12 52/52/12 50/50/12
f 51/51/13 29/29/13 30/30/13 52/52/13
f 30/30/14 29/29/14 40/40/14 39/39/14
f 55/55/16 40/40/16 29/29/16 51/51/16 49/49/16 47/47/16 45/45/16 43/43/16 41/41/16 38/38/16 36/36/16 34/34/16 32/32/16 53/53/16
f 54/54/15 31/31/15 33/33/15 35/35/15 37/37/15 42/42/15 44/44/15 46/46/15 48/48/15 50/50/15 52/52/15 30/30/15 39/39/15 56/56/15
