# Blender 3.3.1
# www.blender.org
mtllib crate.mtl
o Cube
v -0.500000 -0.500000 -0.500000
v 0.500000 -0.500000 -0.500000
v -0.399968 0.399968 -0.500000
v -0.399968 -0.399968 -0.500000
v 0.399968 -0.399968 -0.500000
v 0.399968 0.399968 -0.500000
v -0.399968 0.399968 -0.432520
v -0.399968 -0.399968 -0.432520
v 0.399968 -0.399968 -0.432520
v 0.399968 0.399968 -0.432520
v -0.470169 0.396359 -0.413999
v 0.396359 -0.470169 -0.413999
v 0.470169 -0.396359 -0.413999
v -0.396359 0.470169 -0.413999
v -0.470169 0.396359 -0.476500
v 0.396359 -0.470169 -0.476500
v 0.470169 -0.396359 -0.476500
v -0.396359 0.470169 -0.476500
v 0.500000 -0.500000 0.500000
v -0.500000 -0.500000 0.500000
v 0.399968 0.399968 0.500000
v 0.399968 -0.399968 0.500000
v -0.399968 -0.399968 0.500000
v -0.399968 0.399968 0.500000
v 0.399968 0.399968 0.432520
v 0.399968 -0.399968 0.432520
v -0.399968 -0.399968 0.432520
v -0.399968 0.399968 0.432520
v 0.470169 0.396359 0.413999
v -0.396359 -0.470169 0.413999
v -0.470169 -0.396359 0.413999
v 0.396359 0.470169 0.413999
v 0.470169 0.396359 0.476500
v -0.396359 -0.470169 0.476500
v -0.470169 -0.396359 0.476500
v 0.396359 0.470169 0.476500
v -0.500000 0.500000 0.500000
v -0.500000 0.399968 0.399968
v -0.500000 -0.399968 0.399968
v -0.500000 -0.399968 -0.399968
v -0.500000 0.399968 -0.399968
v -0.432520 0.399968 0.399968
v -0.432520 -0.399968 0.399968
v -0.432520 -0.399968 -0.399968
v -0.432520 0.399968 -0.399968
v -0.413999 0.396359 0.470169
v -0.413999 -0.470169 -0.396359
v -0.413999 -0.396359 -0.470169
v -0.413999 0.470169 0.396359
v -0.476500 0.396359 0.470169
v -0.476500 -0.470169 -0.396359
v -0.476500 -0.396359 -0.470169
v -0.476500 0.470169 0.396359
v 0.500000 0.399968 -0.399968
v 0.500000 -0.399968 -0.399968
v 0.500000 -0.399968 0.399968
v 0.500000 0.399968 0.399968
v 0.432520 0.399968 -0.399968
v 0.432520 -0.399968 -0.399968
v 0.432520 -0.399968 0.399968
v 0.432520 0.399968 0.399968
v 0.413999 0.396359 -0.470169
v 0.413999 -0.470169 0.396359
v 0.413999 -0.396359 0.470169
v 0.413999 0.470169 -0.396359
v 0.476500 0.396359 -0.470169
v 0.476500 -0.470169 0.396359
v 0.476500 -0.396359 0.470169
v 0.476500 0.470169 -0.396359
v 0.500000 0.500000 0.500000
v -0.500000 0.500000 -0.500000
v 0.500000 0.500000 -0.500000
v 0.399968 0.500000 0.399968
v -0.399968 0.500000 0.399968
v -0.399968 0.500000 -0.399968
v 0.399968 0.500000 -0.399968
v 0.399968 0.468072 0.399968
v -0.399968 0.468072 0.399968
v -0.399968 0.468073 -0.399968
v 0.399968 0.468073 -0.399968
vn -0.0000 -1.0000 -0.0000
vn -0.0000 -0.0000 -1.0000
vn 1.0000 -0.0000 -0.0000
vn -1.0000 -0.0000 -0.0000
vn -0.0000 1.0000 -0.0000
vn -0.7071 -0.7071 -0.0000
vn 0.7071 0.7071 -0.0000
vn -0.0000 -0.0000 1.0000
vn 0.7071 -0.7071 -0.0000
vn -0.7071 0.7071 -0.0000
vn -0.0000 -0.7071 0.7071
vn -0.0000 0.7071 -0.7071
vn -0.0000 -0.7071 -0.7071
vn -0.0000 0.7071 0.7071
vt 0.271446 0.000495
vt 0.544378 0.271446
vt 0.543388 0.271446
vt 0.000495 0.000495
vt 0.000495 0.543388
vt 0.272436 0.271446
vt 0.371081 0.762111
vt 0.244343 0.244343
vt 0.474510 0.762111
vt 0.244343 0.027599
vt 0.474510 0.978855
vt 0.455236 0.762111
vt 0.027599 0.027599
vt 0.409629 0.978855
vt 0.455236 0.978855
vt 0.371081 0.978855
vt 0.027599 0.244343
vt 0.409629 0.762111
vt 0.352797 0.762111
vt 0.217239 0.761122
vt 0.492794 0.762111
vt 0.217239 0.544378
vt 0.492794 0.978855
vt 0.473520 0.762111
vt 0.000495 0.544378
vt 0.391345 0.978855
vt 0.473520 0.978855
vt 0.352797 0.978855
vt 0.000495 0.761122
vt 0.391345 0.762111
vt 0.982570 0.544378
vt 0.982570 0.876417
vt 0.967090 0.332534
vt 0.967090 0.000495
vt 0.816319 0.000495
vt 0.999505 0.544378
vt 0.816319 0.332534
vt 0.999505 0.876417
vt 0.844602 0.332534
vt 0.950155 0.332534
vt 0.844602 0.000495
vt 0.950155 0.000495
vt 0.543388 0.272436
vt 0.271446 0.543388
vt 0.272436 0.000495
vt 0.272436 0.272436
vt 0.544378 0.000495
vt 0.543388 0.000495
vt 0.532331 0.978855
vt 0.516284 0.516284
vt 0.513058 0.762111
vt 0.516284 0.299540
vt 0.513058 0.978855
vt 0.351807 0.978855
vt 0.299540 0.299540
vt 0.808489 0.489180
vt 0.351807 0.762111
vt 0.532331 0.762111
vt 0.299540 0.516284
vt 0.808489 0.272436
vt 0.550615 0.978855
vt 0.652706 0.761122
vt 0.531341 0.762111
vt 0.652706 0.544378
vt 0.531341 0.978855
vt 0.333523 0.978855
vt 0.435962 0.544378
vt 0.790205 0.489180
vt 0.333523 0.762111
vt 0.550615 0.762111
vt 0.435962 0.761121
vt 0.790205 0.272436
vt 0.981580 0.876417
vt 0.981580 0.544378
vt 0.968080 0.000495
vt 0.968080 0.332534
vt 0.873875 0.332534
vt 0.964646 0.876417
vt 0.873875 0.000495
vt 0.964646 0.544378
vt 0.845592 0.000495
vt 0.985015 0.000495
vt 0.845592 0.332534
vt 0.985015 0.332534
vt 0.272436 0.543388
vt 0.815329 0.000495
vt 0.789215 0.272436
vt 0.904137 0.000495
vt 0.390355 0.762111
vt 0.788225 0.027599
vt 0.570879 0.762111
vt 0.571481 0.027599
vt 0.570879 0.978855
vt 0.493784 0.762111
vt 0.571481 0.244343
vt 0.590153 0.762111
vt 0.493784 0.978855
vt 0.390355 0.978855
vt 0.788225 0.244343
vt 0.590153 0.978855
vt 0.372071 0.762111
vt 0.434973 0.761122
vt 0.589163 0.762111
vt 0.434973 0.544378
vt 0.589163 0.978855
vt 0.512068 0.762111
vt 0.218229 0.544378
vt 0.608437 0.762111
vt 0.512068 0.978855
vt 0.372071 0.978855
vt 0.218229 0.761121
vt 0.608437 0.978855
vt 0.932231 0.000495
vt 0.932231 0.332534
vt 0.945731 0.876416
vt 0.945731 0.544378
vt 0.874864 0.000495
vt 0.949166 0.000495
vt 0.874864 0.332534
vt 0.949165 0.332534
vt 0.903147 0.332534
vt 0.928796 0.876416
vt 0.903147 0.000495
vt 0.928796 0.544378
vt 0.410619 0.978855
vt 0.027599 0.299540
vt 0.551605 0.762111
vt 0.027599 0.516284
vt 0.551605 0.978855
vt 0.454246 0.978855
vt 0.244343 0.516284
vt 0.627710 0.978855
vt 0.454246 0.762111
vt 0.410619 0.762111
vt 0.244343 0.299540
vt 0.627710 0.762111
vt 0.428902 0.978855
vt 0.544378 0.489180
vt 0.569889 0.762111
vt 0.761121 0.489180
vt 0.569889 0.978855
vt 0.435962 0.978855
vt 0.761122 0.272436
vt 0.609426 0.978855
vt 0.435962 0.762111
vt 0.428902 0.762111
vt 0.544378 0.272436
vt 0.609426 0.762111
vt 0.963656 0.876416
vt 0.963656 0.544378
vt 0.332533 0.762111
vt 0.000495 0.762111
vt 0.899713 0.876417
vt 0.946721 0.876416
vt 0.899713 0.544378
vt 0.946721 0.544378
vt 0.871430 0.544378
vt 0.332533 0.779046
vt 0.871430 0.876417
vt 0.000495 0.779046
vt 0.543388 0.543388
vt 0.271446 0.272436
vt 0.904137 0.543388
vt 0.789215 0.543388
vt 0.271446 0.271446
vt 0.815329 0.271446
vt 0.900703 0.544378
vt 0.904137 0.271446
vt 0.000495 0.271446
vt 0.000495 0.272436
vt 0.904137 0.272436
vt 0.900703 0.815329
vt 0.637351 0.762111
vt 0.931241 0.516284
vt 0.762111 0.516284
vt 0.860799 0.978855
vt 0.762111 0.299540
vt 0.931241 0.027599
vt 0.860799 0.762111
vt 0.644055 0.762111
vt 0.927806 0.571481
vt 0.931241 0.244343
vt 0.861789 0.762111
vt 0.644056 0.978855
vt 0.637351 0.978855
vt 0.931241 0.299540
vt 0.927806 0.788225
vt 0.861789 0.978855
vt 0.628700 0.762111
vt 0.653696 0.761122
vt 0.852149 0.978855
vt 0.870440 0.761122
vt 0.852149 0.762111
vt 0.652706 0.762111
vt 0.870440 0.544378
vt 0.870440 0.762111
vt 0.652706 0.978855
vt 0.628700 0.978855
vt 0.653696 0.544378
vt 0.870440 0.978855
s 0
f 3/7/1 6/16/1 10/28/1 7/19/1
f 71/165/2 72/169/2 6/17/2 3/8/2
f 1/1/2 71/165/2 3/8/2 4/10/2
f 72/169/2 2/4/2 5/13/2 6/17/2
f 2/4/2 1/1/2 4/10/2 5/13/2
f 8/22/2 7/20/2 10/29/2 9/25/2
f 4/11/3 3/9/3 7/21/3 8/23/3
f 6/18/4 5/14/4 9/26/4 10/30/4
f 5/15/5 4/12/5 8/24/5 9/27/5
f 16/37/2 15/35/2 18/41/2 17/39/2
f 12/32/6 11/31/6 15/36/6 16/38/6
f 14/34/7 13/33/7 17/40/7 18/42/7
f 21/49/1 24/58/1 28/70/1 25/61/1
f 70/161/8 37/85/8 24/59/8 21/50/8
f 19/43/8 70/161/8 21/50/8 22/52/8
f 37/85/8 20/46/8 23/55/8 24/59/8
f 20/46/8 19/43/8 22/52/8 23/55/8
f 26/64/8 25/62/8 28/71/8 27/67/8
f 22/53/4 21/51/4 25/63/4 26/65/4
f 24/60/3 23/56/3 27/68/3 28/72/3
f 23/57/5 22/54/5 26/66/5 27/69/5
f 34/79/8 33/77/8 36/83/8 35/81/8
f 30/74/9 29/73/9 33/78/9 34/80/9
f 32/76/10 31/75/10 35/82/10 36/84/10
f 38/89/1 41/98/1 45/110/1 42/101/1
f 37/86/4 71/166/4 41/99/4 38/90/4
f 20/47/4 37/86/4 38/90/4 39/92/4
f 71/166/4 1/2/4 40/95/4 41/99/4
f 1/2/4 20/47/4 39/92/4 40/95/4
f 43/104/4 42/102/4 45/111/4 44/107/4
f 39/93/2 38/91/2 42/103/2 43/105/2
f 41/100/8 40/96/8 44/108/8 45/112/8
f 40/97/5 39/94/5 43/106/5 44/109/5
f 51/119/4 50/117/4 53/123/4 52/121/4
f 47/114/11 46/113/11 50/118/11 51/120/11
f 49/116/12 48/115/12 52/122/12 53/124/12
f 54/125/1 57/134/1 61/146/1 58/137/1
f 72/170/3 70/162/3 57/135/3 54/126/3
f 2/5/3 72/170/3 54/126/3 55/128/3
f 70/162/3 19/44/3 56/131/3 57/135/3
f 19/44/3 2/5/3 55/128/3 56/131/3
f 59/140/3 58/138/3 61/147/3 60/143/3
f 55/129/8 54/127/8 58/139/8 59/141/8
f 57/136/2 56/132/2 60/144/2 61/148/2
f 56/133/5 55/130/5 59/142/5 60/145/5
f 67/155/3 66/153/3 69/159/3 68/157/3
f 63/150/13 62/149/13 66/154/13 67/156/13
f 65/152/14 64/151/14 68/158/14 69/160/14
f 73/173/4 76/185/4 80/198/4 77/189/4
f 70/163/5 72/171/5 76/186/5 73/174/5
f 37/87/5 70/164/5 73/175/5 74/177/5
f 72/172/5 71/167/5 75/181/5 76/187/5
f 71/168/5 37/88/5 74/178/5 75/182/5
f 78/192/5 77/190/5 80/199/5 79/195/5
f 74/179/2 73/176/2 77/191/2 78/193/2
f 76/188/8 75/183/8 79/196/8 80/200/8
f 75/184/3 74/180/3 78/194/3 79/197/3
f 1/3/1 2/6/1 19/45/1 20/48/1
