# Blender 3.3.1
# www.blender.org
mtllib fan.mtl
o Cube
v -0.038201 -0.049445 0.102091
v -0.076402 -0.024325 0.168254
v -0.219108 -0.500000 0.168254
v -0.076402 -0.332192 0.168254
v -0.109554 -0.500000 -0.021499
v -0.038201 -0.332192 0.102088
v 0.109554 -0.500000 -0.021499
v 0.038201 -0.332192 0.102088
v 0.219108 -0.500000 0.168254
v 0.076402 -0.332192 0.168254
v 0.109554 -0.500000 0.358007
v 0.038201 -0.332192 0.234420
v -0.109554 -0.500000 0.358007
v -0.038201 -0.332192 0.234420
v 0.038201 -0.049445 0.102091
v 0.076402 -0.024325 0.168254
v 0.038201 0.000795 0.234418
v -0.038201 0.000795 0.234418
v -0.038201 0.033821 0.024888
v -0.076402 0.099980 0.052875
v 0.038201 0.033821 0.024888
v 0.076402 0.099980 0.052875
v 0.038201 0.166138 0.080862
v -0.038201 0.166138 0.080862
v -0.038201 0.033814 -0.021916
v -0.076402 0.099980 -0.021916
v 0.038201 0.033814 -0.021916
v 0.076402 0.099980 -0.021916
v 0.038201 0.166146 -0.021916
v -0.038201 0.166146 -0.021916
v -0.068726 -0.019057 -0.021916
v -0.137452 0.099980 -0.021916
v 0.068726 -0.019057 -0.021916
v 0.137452 0.099980 -0.021916
v 0.068726 0.219017 -0.021916
v -0.068726 0.219017 -0.021916
v -0.068726 -0.019057 -0.100000
v -0.137452 0.099980 -0.100000
v 0.068726 -0.019057 -0.100000
v 0.137452 0.099980 -0.100000
v 0.068726 0.219017 -0.100000
v -0.068726 0.219017 -0.100000
vn 0.8660 -0.0000 -0.5000
vn -0.6973 0.5930 -0.4026
vn -0.8660 -0.0000 -0.5000
vn -0.0000 0.5930 -0.8052
vn -0.8660 -0.0000 0.5000
vn 0.6973 0.5930 -0.4026
vn -0.0000 -0.0000 -1.0000
vn 0.6973 0.5930 0.4026
vn -0.0000 -0.0000 1.0000
vn -0.0000 0.5930 0.8052
vn 0.8660 -0.0000 0.5000
vn -0.6973 0.5930 0.4026
vn -0.0000 -1.0000 -0.0000
vn -0.8660 -0.5000 -0.0000
vn 0.8660 -0.5000 -0.0000
vn -0.0000 1.0000 0.0001
vn -0.0000 -1.0000 0.0002
vn 0.8660 0.5000 -0.0000
vn -0.8660 0.5000 -0.0000
vn -0.8640 -0.3425 -0.3691
vn -0.0000 -0.6799 -0.7333
vn 0.8640 -0.3425 -0.3691
vn 0.8640 0.3426 0.3690
vn -0.0000 0.6805 0.7327
vn -0.8640 0.3426 0.3690
vn -0.0000 1.0000 -0.0000
vt 0.151827 0.217237
vt 0.623549 0.799160
vt 0.115416 0.211863
vt 0.824733 0.827466
vt 0.236137 0.606476
vt 0.500316 0.293414
vt 0.721656 0.767955
vt 0.157459 0.461186
vt 0.824732 0.644722
vt 0.683060 0.423382
vt 0.500316 0.110670
vt 0.721656 0.704233
vt 0.190441 0.446216
vt 0.623549 0.563340
vt 0.500316 0.423382
vt 0.824732 0.606126
vt 0.658577 0.019298
vt 0.416024 0.208069
vt 0.721656 0.546615
vt 0.559827 0.563340
vt 0.824733 0.423382
vt 0.461720 0.047810
vt 0.816837 0.110670
vt 0.721656 0.482893
vt 0.383042 0.193099
vt 0.281517 0.019298
vt 0.958510 0.202042
vt 0.816837 0.293414
vt 0.064770 0.466100
vt 0.855434 0.142531
vt 0.320206 0.183158
vt 0.958510 0.019298
vt 0.055935 0.634987
vt 0.658577 0.384785
vt 0.855434 0.078809
vt 0.094624 0.471128
vt 0.559827 0.799160
vt 0.377409 0.437049
vt 0.340998 0.442422
vt 0.019298 0.196433
vt 0.274734 0.452824
vt 0.863329 0.876386
vt 0.927051 0.876386
vt 0.049152 0.201462
vt 0.500316 0.907203
vt 0.196356 0.135271
vt 0.623549 0.868607
vt 0.181983 0.089476
vt 0.500316 0.970925
vt 0.559827 0.868607
vt 0.421939 0.519015
vt 0.407566 0.564810
vt 0.363340 0.615633
vt 0.863329 0.748316
vt 0.927051 0.748316
vt 0.137757 0.038652
vt 0.230246 0.126466
vt 0.539352 0.907203
vt 0.345790 0.719332
vt 0.236137 0.075396
vt 0.337291 0.770033
vt 0.455829 0.527820
vt 0.539352 0.970925
vt 0.375347 0.725882
vt 0.461720 0.578890
vt 0.396405 0.783134
vt 0.863329 0.662596
vt 0.437757 0.634987
vt 0.387906 0.833835
vt 0.927051 0.662596
vt 0.212175 0.019298
vt 0.358349 0.827284
vt 0.328963 0.673584
vt 0.920559 0.355278
vt 0.313674 0.764798
vt 0.382138 0.685369
vt 0.947253 0.623999
vt 0.920559 0.240638
vt 0.420023 0.788368
vt 0.921525 0.535163
vt 0.404733 0.879582
vt 0.786781 0.980702
vt 0.947253 0.428476
vt 0.786781 0.866062
vt 0.351558 0.867798
vt 0.271746 0.685369
vt 0.118579 0.902863
vt 0.855434 0.355278
vt 0.019298 0.845543
vt 0.256456 0.776583
vt 0.217860 0.845543
vt 0.889057 0.618906
vt 0.855434 0.240638
vt 0.217860 0.730904
vt 0.863329 0.530069
vt 0.118579 0.673584
vt 0.721656 0.980702
vt 0.889057 0.423382
vt 0.019298 0.730904
vt 0.721656 0.866062
vt 0.294341 0.879582
s 0
f 10/25/1 8/18/1 15/38/1 16/39/1
f 3/4/2 4/7/2 6/12/2 5/9/2
f 6/13/3 4/8/3 2/3/3 1/1/3
f 5/10/4 6/14/4 8/20/4 7/15/4
f 4/8/5 14/36/5 18/44/5 2/3/5
f 7/16/6 8/19/6 10/24/6 9/21/6
f 8/20/7 6/14/7 1/2/7 15/37/7
f 9/22/8 10/25/8 12/31/8 11/26/8
f 14/36/9 12/29/9 17/40/9 18/44/9
f 11/27/10 12/30/10 14/35/10 13/32/10
f 12/31/11 10/25/11 16/39/11 17/41/11
f 13/33/12 14/36/12 4/8/12 3/5/12
f 3/6/13 5/11/13 7/17/13 9/23/13 11/28/13 13/34/13
f 30/72/9 29/69/9 35/81/9 36/85/9
f 19/46/14 20/48/14 26/60/14 25/57/14
f 22/52/15 21/51/15 27/62/15 28/65/15
f 24/55/16 23/54/16 29/67/16 30/70/16
f 21/49/17 19/45/17 25/58/17 27/63/17
f 23/53/18 22/52/18 28/65/18 29/68/18
f 20/48/19 24/56/19 30/71/19 26/60/19
f 20/48/20 19/46/20 1/1/20 2/3/20
f 19/47/21 21/50/21 15/37/21 1/2/21
f 21/51/22 22/52/22 16/39/22 15/38/22
f 22/52/23 23/53/23 17/41/23 16/39/23
f 23/54/24 24/55/24 18/43/24 17/42/24
f 24/56/25 20/48/25 2/3/25 18/44/25
f 31/73/14 32/75/14 38/90/14 37/86/14
f 27/64/9 25/59/9 31/73/9 33/76/9
f 29/69/9 28/66/9 34/79/9 35/81/9
f 26/61/9 30/72/9 36/85/9 32/75/9
f 25/59/9 26/61/9 32/75/9 31/73/9
f 28/66/9 27/64/9 33/76/9 34/79/9
f 37/87/7 38/89/7 42/99/7 41/96/7 40/94/7 39/91/7
f 34/80/15 33/77/15 39/92/15 40/95/15
f 36/84/26 35/82/26 41/97/26 42/100/26
f 33/78/13 31/74/13 37/88/13 39/93/13
f 35/83/18 34/80/18 40/95/18 41/98/18
f 32/75/19 36/85/19 42/101/19 38/90/19
